<svg width="64" height="64" viewBox="0 0 64 64" fill="none" xmlns="http://www.w3.org/2000/svg">
<path d="M52.5091 52.506C56.8049 48.2102 51.1064 35.5469 39.7812 24.2217C28.456 12.8965 15.7927 7.19803 11.4969 11.4938C7.20116 15.7896 12.8996 28.4529 24.2248 39.7781C35.5501 51.1033 48.2133 56.8018 52.5091 52.506Z" stroke="white" stroke-linecap="round" stroke-linejoin="round"/>
<path d="M39.7812 39.7783C51.1064 28.4531 56.8049 15.7898 52.5091 11.494C48.2133 7.19824 35.5501 12.8967 24.2248 24.2219C12.8996 35.5471 7.20116 48.2104 11.4969 52.5062C15.7927 56.802 28.456 51.1035 39.7812 39.7783Z" stroke="white" stroke-linecap="round" stroke-linejoin="round"/>
<path d="M32 34.5C33.3807 34.5 34.5 33.3807 34.5 32C34.5 30.6193 33.3807 29.5 32 29.5C30.6193 29.5 29.5 30.6193 29.5 32C29.5 33.3807 30.6193 34.5 32 34.5Z" fill="white"/>
</svg>
