<svg width="64" height="64" viewBox="0 0 64 64" fill="none" xmlns="http://www.w3.org/2000/svg">
<path d="M11.9472 20.1372C11.5172 20.4027 10.9527 20.2691 10.6865 19.8386C10.4202 19.4081 10.553 18.8439 10.983 18.5783C11.4131 18.3127 11.9776 18.4464 12.2438 18.8768C12.5101 19.3073 12.3773 19.8716 11.9472 20.1372Z" fill="white"/>
<path d="M16.027 16.0904C15.6527 16.43 15.0735 16.4015 14.7333 16.0267C14.3931 15.6519 14.4207 15.0727 14.795 14.7331C15.1692 14.3935 15.7485 14.422 16.0887 14.7968C16.4289 15.1716 16.4013 15.7508 16.027 16.0904Z" fill="white"/>
<path d="M19.3829 12.3813C18.8773 12.3947 18.4559 11.9956 18.4418 11.49C18.4276 10.9844 18.826 10.5636 19.3316 10.5503C19.8372 10.5369 20.2585 10.936 20.2727 11.4416C20.2869 11.9472 19.8885 12.368 19.3829 12.3813Z" fill="white"/>
<path d="M22.1943 4.09285L24.1467 6.04524C24.329 6.22725 24.4368 6.47078 24.4487 6.72793L24.5914 9.73405C24.6059 10.0448 24.5555 10.3551 24.4434 10.6451C24.3313 10.9351 24.16 11.1985 23.9404 11.4185L21.6252 13.7337L22.3029 14.4115C22.5223 14.6308 22.6964 14.8912 22.8152 15.1776C22.9341 15.4641 22.9954 15.7711 22.9956 16.0811C22.9958 16.3911 22.935 16.6979 22.8166 16.9842C22.6982 17.2705 22.5246 17.5306 22.3056 17.7496L22.2639 17.7912L25.3247 20.8521L26.5019 22.803C26.6376 23.0273 26.6942 23.2905 26.6626 23.5504C26.6311 23.8104 26.5132 24.0521 26.3279 24.237L26.145 24.4199L26.7787 25.0536C26.9573 25.2322 27.0762 25.4618 27.1189 25.7106C27.1617 25.9593 27.1262 26.2152 27.0175 26.4427L42.6325 42.0577C42.8056 42.0115 42.9891 42.0237 43.1548 42.0924C43.3204 42.1611 43.4588 42.2825 43.5485 42.4378C43.6382 42.5931 43.6742 42.7735 43.651 42.9512C43.6277 43.1289 43.5465 43.2938 43.4198 43.4204C43.2932 43.547 43.1283 43.6282 42.9506 43.6515C42.7729 43.6747 42.5925 43.6386 42.4372 43.5489C42.2819 43.4591 42.1606 43.3207 42.0919 43.1551C42.0232 42.9895 42.011 42.8059 42.0573 42.6328L26.4424 27.0179C26.2148 27.1267 25.959 27.1621 25.7102 27.1194C25.4614 27.0766 25.2319 26.9577 25.0532 26.7791L24.4195 26.1454L24.2365 26.3283C24.0517 26.5137 23.81 26.6316 23.55 26.6631C23.29 26.6946 23.0268 26.638 22.8025 26.5022L20.9213 25.3674C20.9008 25.3572 20.8811 25.3454 20.8625 25.3319L20.8515 25.3253L20.8387 25.3124C20.8306 25.3055 20.8218 25.3 20.8141 25.2923C20.8065 25.2847 20.801 25.2759 20.7941 25.2678L19.7102 24.1839C19.6737 24.1598 19.6424 24.1284 19.6182 24.0919L18.5343 23.008C18.5263 23.0011 18.5174 22.9956 18.5098 22.988C18.5021 22.9803 18.4966 22.9715 18.4897 22.9634L17.7907 22.2644L17.7492 22.306C17.5301 22.525 17.2701 22.6987 16.9838 22.8171C16.6975 22.9355 16.3906 22.9963 16.0806 22.996C15.7707 22.9958 15.4637 22.9345 15.1772 22.8157C14.8907 22.6968 14.6304 22.5227 14.411 22.3034L13.7333 21.6256L11.4181 23.9408C11.1981 24.1604 10.9347 24.3318 10.6447 24.4438C10.3547 24.5559 10.0444 24.6063 9.7336 24.5919L6.72734 24.4492C6.47024 24.4372 6.22677 24.3295 6.0448 24.1472L4.0924 22.1948L22.1943 4.09285ZM20.7697 21.3042L19.3752 22.6986L19.9513 23.2747L21.1955 22.0305C21.2718 21.9542 21.3753 21.9114 21.4832 21.9115C21.5912 21.9116 21.6948 21.9546 21.7712 22.031C21.8475 22.1074 21.8905 22.2109 21.8906 22.3189C21.8907 22.4268 21.8479 22.5303 21.7716 22.6066L20.5274 23.8508L21.1035 24.4269L22.2022 23.3282C22.2785 23.252 22.382 23.2093 22.4899 23.2095C22.5977 23.2096 22.7012 23.2526 22.7776 23.3289C22.8539 23.4053 22.8969 23.5087 22.897 23.6166C22.8971 23.7245 22.8544 23.828 22.7783 23.9043L21.7596 24.923L23.2224 25.8054C23.2909 25.8469 23.3713 25.8642 23.4507 25.8545C23.5302 25.8449 23.604 25.8089 23.6604 25.7522L25.7518 23.6609C25.8084 23.6044 25.8445 23.5305 25.8541 23.4511C25.8637 23.3717 25.8465 23.2912 25.805 23.2227L24.6792 21.3569L21.0107 17.6883C20.8669 17.5449 20.6721 17.4642 20.4691 17.464C20.2662 17.4639 20.0715 17.5442 19.928 17.6875L17.687 19.9285C17.5437 20.0721 17.4634 20.2667 17.4635 20.4697C17.4637 20.6726 17.5444 20.8674 17.6878 21.0112L18.7992 22.1225L20.1936 20.7281C20.2699 20.6518 20.3734 20.609 20.4813 20.6091C20.5893 20.6092 20.6928 20.6521 20.7692 20.7285C20.8456 20.8049 20.8886 20.9085 20.8887 21.0164C20.8888 21.1244 20.846 21.2279 20.7697 21.3042ZM6.61998 23.572C6.65857 23.6107 6.71019 23.6335 6.76472 23.6361L9.77091 23.7787C9.96853 23.7879 10.1658 23.7559 10.3502 23.6846C10.5347 23.6133 10.7021 23.5044 10.842 23.3647L23.3643 10.8424C23.504 10.7025 23.6129 10.535 23.6841 10.3506C23.7554 10.1662 23.7875 9.96895 23.7783 9.77135L23.6355 6.76516C23.633 6.71064 23.6102 6.659 23.5715 6.62043L22.1952 5.24413L5.24368 22.1957L6.61998 23.572Z" fill="white"/>
<path d="M21.3447 20.1534C21.2877 20.0964 21.2489 20.0239 21.2331 19.9449C21.2174 19.8659 21.2254 19.7841 21.2561 19.7098C21.2869 19.6354 21.339 19.5719 21.4059 19.5272C21.4728 19.4825 21.5515 19.4587 21.632 19.4588C21.7125 19.4588 21.7912 19.4828 21.8582 19.5276C21.9251 19.5723 21.9774 19.636 22.0082 19.7104C22.0391 19.7848 22.0472 19.8666 22.0316 19.9455C22.0159 20.0245 21.9772 20.097 21.9203 20.1539C21.844 20.2301 21.7406 20.2729 21.6326 20.2728C21.5247 20.2728 21.4211 20.2298 21.3447 20.1534V20.1534Z" fill="white"/>
<path d="M22.9223 21.4563C22.7635 21.6151 22.5057 21.6149 22.3466 21.4559C22.1876 21.2968 22.1874 21.039 22.3462 20.8802C22.505 20.7214 22.7628 20.7216 22.9218 20.8807C23.0809 21.0397 23.0811 21.2975 22.9223 21.4563Z" fill="white"/>
<path d="M23.9291 22.7539C23.7703 22.9127 23.5126 22.9125 23.3535 22.7534C23.1944 22.5943 23.1942 22.3366 23.353 22.1778C23.5119 22.019 23.7696 22.0192 23.9287 22.1782C24.0878 22.3373 24.088 22.595 23.9291 22.7539Z" fill="white"/>
<path d="M41.133 42.5712C41.0763 42.9319 41.1353 43.3015 41.3015 43.627C41.4677 43.9525 41.7326 44.2172 42.0582 44.3832C42.3838 44.5492 42.7534 44.608 43.1141 44.5511C43.4748 44.4942 43.808 44.3246 44.0661 44.0665C44.3242 43.8084 44.4938 43.4752 44.5507 43.1145C44.6076 42.7538 44.5489 42.3842 44.3829 42.0586C44.2169 41.733 43.9522 41.4681 43.6267 41.3019C43.3013 41.1357 42.9317 41.0767 42.5709 41.1333L41.0676 39.6299L39.7583 36.4741C39.7169 36.3743 39.7169 36.2623 39.7581 36.1626C39.7994 36.0629 39.8786 35.9837 39.9783 35.9425C40.078 35.9013 40.19 35.9014 40.2898 35.9428C40.3895 35.9842 40.4688 36.0635 40.5102 36.1632L42.2542 40.3671C42.3128 40.3534 42.3715 40.3416 42.4308 40.3321L42.4254 33.5473C42.4254 33.4394 42.4683 33.3361 42.5445 33.2599C42.6208 33.1837 42.7242 33.141 42.8321 33.1411C42.94 33.1411 43.0435 33.184 43.1198 33.2603C43.1962 33.3366 43.2392 33.4401 43.2394 33.548L43.2447 40.3327C43.304 40.3423 43.3628 40.3542 43.4214 40.368L45.1589 36.1669C45.1793 36.1175 45.2092 36.0727 45.247 36.0349C45.2848 35.9972 45.3296 35.9672 45.379 35.9468C45.4284 35.9264 45.4813 35.9159 45.5347 35.916C45.5882 35.916 45.6411 35.9266 45.6905 35.9471C45.7399 35.9676 45.7848 35.9976 45.8226 36.0354C45.8604 36.0733 45.8904 36.1181 45.9109 36.1675C45.9314 36.2169 45.942 36.2699 45.942 36.3233C45.942 36.3768 45.9316 36.4297 45.9111 36.479L44.1742 40.679C44.2252 40.7105 44.2749 40.7444 44.324 40.7798L49.1173 35.9865C49.1936 35.9103 49.2971 35.8674 49.405 35.8675C49.513 35.8676 49.6165 35.9106 49.6929 35.987C49.7693 36.0634 49.8123 36.1669 49.8124 36.2749C49.8125 36.3828 49.7697 36.4863 49.6934 36.5626L44.9 41.356C44.9355 41.405 44.9693 41.4547 45.0008 41.5056L49.2007 39.7686C49.2501 39.7481 49.3031 39.7376 49.3566 39.7376C49.4101 39.7375 49.463 39.7481 49.5125 39.7685C49.562 39.789 49.6069 39.819 49.6448 39.8569C49.6827 39.8947 49.7127 39.9396 49.7332 39.9891C49.7537 40.0385 49.7643 40.0915 49.7643 40.145C49.7644 40.1985 49.7538 40.2514 49.7334 40.3008C49.7129 40.3502 49.6829 40.3951 49.6451 40.4329C49.6072 40.4706 49.5623 40.5005 49.5129 40.5209L45.3118 42.2584C45.3256 42.317 45.3376 42.3758 45.3471 42.435L52.1318 42.4404C52.1853 42.4404 52.2382 42.451 52.2876 42.4715C52.337 42.492 52.3819 42.522 52.4197 42.5598C52.4575 42.5976 52.4875 42.6425 52.508 42.6919C52.5285 42.7413 52.5391 42.7942 52.5391 42.8477C52.5392 42.9011 52.5287 42.954 52.5083 43.0034C52.4879 43.0528 52.4579 43.0976 52.4202 43.1354C52.3824 43.1731 52.3376 43.2031 52.2882 43.2235C52.2388 43.2439 52.1859 43.2544 52.1325 43.2544L45.3478 43.249C45.3383 43.3083 45.3265 43.367 45.3128 43.4256L49.5165 45.1696C49.566 45.1901 49.6109 45.2201 49.6487 45.2579C49.6865 45.2957 49.7166 45.3406 49.7371 45.39C49.7576 45.4394 49.7682 45.4923 49.7682 45.5458C49.7683 45.5993 49.7578 45.6522 49.7374 45.7016C49.717 45.7509 49.687 45.7958 49.6493 45.8336C49.6115 45.8713 49.5666 45.9013 49.5173 45.9217C49.4679 45.9421 49.415 45.9526 49.3615 45.9526C49.3081 45.9526 49.2551 45.942 49.2057 45.9215L45.003 44.1779C44.9716 44.2289 44.9378 44.2785 44.9024 44.3276L49.7032 49.1284C49.7796 49.2047 49.8225 49.3083 49.8226 49.4162C49.8227 49.5242 49.7799 49.6277 49.7036 49.7039C49.6274 49.7802 49.5239 49.823 49.416 49.8229C49.308 49.8228 49.2045 49.7799 49.1281 49.7035L44.3273 44.9027C44.2782 44.9381 44.2286 44.9719 44.1776 45.0033L45.9212 49.206C45.9626 49.3058 45.9627 49.4178 45.9214 49.5175C45.8802 49.6172 45.801 49.6964 45.7013 49.7376C45.6015 49.7788 45.4895 49.7787 45.3897 49.7373C45.29 49.6959 45.2107 49.6166 45.1693 49.5168L43.4253 45.3131C43.3667 45.3268 43.308 45.3386 43.2487 45.3481L43.254 52.1328C43.2541 52.2408 43.2113 52.3442 43.135 52.4205C43.0588 52.4968 42.9553 52.5396 42.8473 52.5395C42.7394 52.5394 42.6358 52.4964 42.5595 52.4201C42.4831 52.3437 42.4401 52.2401 42.44 52.1322L42.4347 45.3474C42.3754 45.3378 42.3167 45.3259 42.2581 45.3121L40.5206 49.5132C40.4794 49.6129 40.4002 49.692 40.3005 49.7333C40.2008 49.7745 40.0888 49.7744 39.989 49.7331C39.8893 49.6917 39.81 49.6124 39.7686 49.5127C39.7271 49.4129 39.727 49.3009 39.7682 49.2011L41.5053 45.001C41.4544 44.9696 41.4047 44.9357 41.3557 44.9003L36.5623 49.6937C36.486 49.77 36.3825 49.8128 36.2745 49.8127C36.1666 49.8126 36.063 49.7697 35.9866 49.6933C35.9102 49.6169 35.8673 49.5133 35.8672 49.4054C35.8671 49.2974 35.9099 49.1939 35.9862 49.1177L40.7796 44.3243C40.7441 44.2752 40.7103 44.2255 40.6787 44.1745L36.4786 45.9116C36.3789 45.9528 36.2669 45.9526 36.1671 45.9112C36.0674 45.8698 35.9881 45.7905 35.9467 45.6907C35.9054 45.591 35.9053 45.4789 35.9465 45.3792C35.9877 45.2796 36.0669 45.2004 36.1666 45.1592L40.3677 43.4217C40.354 43.3631 40.342 43.3044 40.3324 43.2451L33.5476 43.2398C33.4941 43.2397 33.4412 43.2292 33.3918 43.2087C33.3423 43.1882 33.2974 43.1582 33.2596 43.1204C33.2217 43.0826 33.1917 43.0377 33.1712 42.9883C33.1507 42.9389 33.1401 42.8859 33.1401 42.8324C33.14 42.779 33.1505 42.726 33.171 42.6767C33.1914 42.6273 33.2213 42.5824 33.2591 42.5447C33.2969 42.5069 33.3418 42.477 33.3912 42.4566C33.4406 42.4362 33.4935 42.4257 33.547 42.4258L40.3318 42.4311C40.3413 42.3719 40.3531 42.3131 40.3668 42.2545L36.163 40.5105C36.0632 40.4691 35.9839 40.3898 35.9425 40.2901C35.9011 40.1903 35.901 40.0782 35.9422 39.9785C35.9834 39.8788 36.0626 39.7996 36.1623 39.7584C36.262 39.7171 36.374 39.7172 36.4738 39.7586L39.6297 41.0678L41.133 42.5712Z" fill="#FFA800"/>
<path d="M42.8318 32.3266C42.7513 32.3265 42.6726 32.3026 42.6056 32.2578C42.5387 32.213 42.4864 32.1494 42.4556 32.075C42.4247 32.0006 42.4166 31.9187 42.4322 31.8398C42.4479 31.7608 42.4866 31.6883 42.5435 31.6315C42.6003 31.5746 42.6728 31.5359 42.7518 31.5202C42.8307 31.5046 42.9126 31.5127 42.987 31.5436C43.0614 31.5744 43.125 31.6267 43.1698 31.6936C43.2146 31.7606 43.2385 31.8393 43.2385 31.9198C43.2386 32.0278 43.1958 32.1313 43.1195 32.2075C43.0433 32.2838 42.9398 32.3266 42.8318 32.3266V32.3266Z" fill="#FFA800"/>
<path d="M43.1362 54.0487C42.9773 54.2075 42.7196 54.2073 42.5605 54.0482C42.4014 53.8891 42.4012 53.6314 42.5601 53.4726C42.7189 53.3137 42.9766 53.3139 43.1357 53.473C43.2948 53.6321 43.295 53.8898 43.1362 54.0487Z" fill="#FFA800"/>
<path d="M53.7599 42.4416C53.8404 42.4417 53.9191 42.4656 53.9861 42.5104C54.053 42.5552 54.1053 42.6188 54.1361 42.6932C54.167 42.7676 54.1751 42.8494 54.1595 42.9284C54.1438 43.0073 54.1051 43.0798 54.0483 43.1367C53.9914 43.1936 53.9189 43.2323 53.8399 43.2479C53.761 43.2636 53.6791 43.2555 53.6047 43.2246C53.5303 43.1937 53.4667 43.1415 53.4219 43.0745C53.3772 43.0076 53.3532 42.9288 53.3532 42.8483C53.3531 42.7404 53.3959 42.6369 53.4722 42.5606C53.5484 42.4844 53.6519 42.4416 53.7599 42.4416V42.4416Z" fill="#FFA800"/>
<path d="M32.2074 43.1195C32.0486 43.2784 31.7909 43.2782 31.6318 43.1191C31.4727 42.96 31.4725 42.7023 31.6314 42.5435C31.7902 42.3846 32.0479 42.3848 32.207 42.5439C32.3661 42.703 32.3663 42.9607 32.2074 43.1195Z" fill="#FFA800"/>
<path d="M50.2798 50.2801C50.3367 50.2232 50.4092 50.1845 50.4881 50.1688C50.5671 50.1532 50.6489 50.1613 50.7233 50.1922C50.7977 50.2231 50.8613 50.2753 50.9061 50.3423C50.9509 50.4092 50.9748 50.4879 50.9749 50.5685C50.9749 50.649 50.9511 50.7276 50.9064 50.7945C50.8618 50.8614 50.7982 50.9136 50.7239 50.9443C50.6495 50.9751 50.5677 50.9831 50.4887 50.9673C50.4098 50.9515 50.3372 50.9127 50.2802 50.8557C50.2038 50.7793 50.1609 50.6758 50.1608 50.5678C50.1607 50.4599 50.2035 50.3564 50.2798 50.2801V50.2801Z" fill="#FFA800"/>
<path d="M50.8432 35.4122C50.6844 35.571 50.4266 35.5708 50.2675 35.4118C50.1085 35.2527 50.1083 34.9949 50.2671 34.8361C50.4259 34.6773 50.6836 34.6775 50.8427 34.8366C51.0018 34.9957 51.002 35.2534 50.8432 35.4122Z" fill="#FFA800"/>
<path d="M34.8355 50.268C34.8923 50.2111 34.9648 50.1724 35.0438 50.1567C35.1227 50.1411 35.2046 50.1492 35.279 50.1801C35.3534 50.2109 35.417 50.2632 35.4618 50.3301C35.5065 50.3971 35.5305 50.4758 35.5305 50.5563C35.5306 50.6368 35.5068 50.7155 35.4621 50.7824C35.4174 50.8493 35.3539 50.9014 35.2796 50.9322C35.2052 50.9629 35.1234 50.9709 35.0444 50.9552C34.9654 50.9394 34.8929 50.9006 34.8359 50.8436C34.7595 50.7672 34.7166 50.6636 34.7165 50.5557C34.7164 50.4477 34.7592 50.3442 34.8355 50.268V50.268Z" fill="#FFA800"/>
</svg>
