<svg width="120" height="120" viewBox="0 0 120 120" fill="none" xmlns="http://www.w3.org/2000/svg">
<circle cx="60" cy="60" r="60" fill="url(#paint0_linear_450_14499)"/>
<path fill-rule="evenodd" clip-rule="evenodd" d="M63.8962 37.4843C64.1467 36.5509 65.1065 35.9972 66.04 36.2477C70.0468 37.3231 73.7004 39.4334 76.6339 42.367C79.5674 45.3005 81.6778 48.954 82.7531 52.9609C83.0036 53.8944 82.45 54.8542 81.5165 55.1047C80.5831 55.3552 79.6233 54.8016 79.3727 53.8681C78.4565 50.4542 76.6585 47.3413 74.159 44.8418C71.6596 42.3424 68.5467 40.5443 65.1328 39.6281C64.1993 39.3776 63.6457 38.4178 63.8962 37.4843Z" fill="white"/>
<path fill-rule="evenodd" clip-rule="evenodd" d="M61.6255 45.938C61.8736 45.0038 62.8319 44.4477 63.766 44.6958C66.2958 45.3676 68.603 46.6963 70.4538 48.5471C72.3046 50.3979 73.6332 52.7051 74.3051 55.2348C74.5532 56.1689 73.997 57.1273 73.0629 57.3754C72.1288 57.6235 71.1704 57.0673 70.9223 56.1332C70.4089 54.1998 69.3934 52.4365 67.9789 51.022C66.5644 49.6074 64.8011 48.592 62.8676 48.0785C61.9335 47.8304 61.3774 46.8721 61.6255 45.938Z" fill="white"/>
<path d="M47.293 61.125C49.544 65.7735 53.3028 69.5227 57.957 71.7617C58.3003 71.9243 58.6801 71.9947 59.0588 71.9659C59.4376 71.9371 59.8024 71.8102 60.1172 71.5977L66.9531 67.0313C67.2551 66.8264 67.6041 66.7014 67.9675 66.668C68.3309 66.6345 68.6969 66.6936 69.0312 66.8399L81.8281 72.336C82.2655 72.518 82.6309 72.8388 82.868 73.2488C83.1052 73.6589 83.201 74.1356 83.1406 74.6055C82.735 77.7712 81.1898 80.6806 78.7942 82.7894C76.3985 84.8982 73.3166 86.0618 70.125 86.0625C60.2623 86.0625 50.8035 82.1446 43.8295 75.1706C36.8555 68.1965 32.9375 58.7378 32.9375 48.875C32.9382 45.6835 34.1018 42.6015 36.2106 40.2058C38.3194 37.8102 41.2288 36.265 44.3945 35.8594C44.8644 35.799 45.3411 35.8948 45.7512 36.132C46.1613 36.3691 46.482 36.7345 46.6641 37.1719L52.1602 49.9961C52.3031 50.3252 52.3629 50.6844 52.3343 51.042C52.3056 51.3996 52.1895 51.7447 51.9961 52.0469L47.4297 58.9922C47.2264 59.3063 47.1071 59.6674 47.0831 60.0408C47.0592 60.4142 47.1314 60.7875 47.293 61.125V61.125Z" fill="white"/>
<mask id="mask0_450_14499" style="mask-type:alpha" maskUnits="userSpaceOnUse" x="32" y="35" width="52" height="52">
<path d="M47.293 61.125C49.544 65.7735 53.3028 69.5227 57.957 71.7617C58.3003 71.9243 58.6801 71.9947 59.0588 71.9659C59.4376 71.9371 59.8024 71.8102 60.1172 71.5977L66.9531 67.0313C67.2551 66.8264 67.6041 66.7014 67.9675 66.668C68.3309 66.6345 68.6969 66.6936 69.0312 66.8399L81.8281 72.336C82.2655 72.518 82.6309 72.8388 82.868 73.2488C83.1052 73.6589 83.201 74.1356 83.1406 74.6055C82.735 77.7712 81.1898 80.6806 78.7942 82.7894C76.3985 84.8982 73.3166 86.0618 70.125 86.0625C60.2623 86.0625 50.8035 82.1446 43.8295 75.1706C36.8555 68.1965 32.9375 58.7378 32.9375 48.875C32.9382 45.6835 34.1018 42.6015 36.2106 40.2058C38.3194 37.8102 41.2288 36.265 44.3945 35.8594C44.8644 35.799 45.3411 35.8948 45.7512 36.132C46.1613 36.3691 46.482 36.7345 46.6641 37.1719L52.1602 49.9961C52.3031 50.3252 52.3629 50.6844 52.3343 51.042C52.3056 51.3996 52.1895 51.7447 51.9961 52.0469L47.4297 58.9922C47.2264 59.3063 47.1071 59.6674 47.0831 60.0408C47.0592 60.4142 47.1314 60.7875 47.293 61.125V61.125Z" fill="white"/>
</mask>
<g mask="url(#mask0_450_14499)">
<path d="M40.8987 65.5004C45.0988 61.2999 47.8994 58.1504 47.8994 58.1504L59.7998 65.8504C59.7998 65.8504 59.0417 81.3088 51.7498 79.8504C42.9998 78.1004 36.8523 69.5472 40.8987 65.5004Z" fill="url(#paint1_linear_450_14499)"/>
</g>
<defs>
<linearGradient id="paint0_linear_450_14499" x1="120" y1="120" x2="-14.2911" y2="100.998" gradientUnits="userSpaceOnUse">
<stop stop-color="#002BC6"/>
<stop offset="1" stop-color="#00C2FF"/>
</linearGradient>
<linearGradient id="paint1_linear_450_14499" x1="44.7498" y1="59.2004" x2="57.3498" y2="74.9504" gradientUnits="userSpaceOnUse">
<stop stop-color="#0146D0" stop-opacity="0.8"/>
<stop offset="1" stop-color="#017FE6" stop-opacity="0"/>
</linearGradient>
</defs>
</svg>
