<svg width="36" height="36" viewBox="0 0 36 36" fill="none" xmlns="http://www.w3.org/2000/svg">
<path d="M31.1173 17.2046L22.0901 8.17741C21.6507 7.73806 20.9384 7.73806 20.4991 8.17741C20.0598 8.61676 20.0598 9.32906 20.4991 9.76841L27.6464 16.9157H5.55562C4.9567 16.9157 4.47119 17.4012 4.47119 18.0001C4.47119 18.599 4.95673 19.0845 5.55562 19.0845H27.6464L20.4991 26.2318C20.0598 26.6711 20.0598 27.3835 20.4991 27.8228C20.7188 28.0425 21.0067 28.1523 21.2946 28.1523C21.5825 28.1523 21.8704 28.0425 22.0901 27.8228L31.1173 18.7956C31.2218 18.6911 31.3046 18.5671 31.3612 18.4306C31.4177 18.2941 31.4468 18.1478 31.4468 18.0001C31.4468 17.8524 31.4177 17.7061 31.3612 17.5696C31.3046 17.4331 31.2218 17.3091 31.1173 17.2046V17.2046Z" fill="#0D3380"/>
</svg>
